<svg xmlns="http://www.w3.org/2000/svg" viewBox="0 0 24 24">
  <defs>
    <style>
      @keyframes windFlow {
        0% {
          stroke-dashoffset: 200;
          opacity: 0.3;
        }
        50% {
          opacity: 0.8;
        }
        100% {
          stroke-dashoffset: 0;
          opacity: 1;
        }
      }
      
      @keyframes float {
        0%, 100% {
          transform: translateY(0);
        }
        50% {
          transform: translateY(-3px);
        }
      }

      .wind-path {
        fill: none;
        stroke: #38B2AC;
        stroke-width: 0.5;
        stroke-dasharray: 200;
        animation: windFlow 3s ease-in-out infinite;
      }

      .logo-body {
        fill: #38B2AC;
        animation: float 3s ease-in-out infinite;
      }
    </style>
  </defs>

  <!-- Background wind effect paths -->
  <path class="wind-path" d="M12.001,4.8c-3.2,0-5.2,1.6-6,4.8c1.2-1.6,2.6-2.2,4.2-1.8c0.913,0.228,1.565,0.89,2.288,1.624 C13.666,10.618,15.027,12,18.001,12c3.2,0,5.2-1.6,6-4.8c-1.2,1.6-2.6,2.2-4.2,1.8c-0.913-0.228-1.565-0.89-2.288-1.624 C16.337,6.182,14.976,4.8,12.001,4.8z"/>
  <path class="wind-path" d="M6.001,12c-3.2,0-5.2,1.6-6,4.8c1.2-1.6,2.6-2.2,4.2-1.8c0.913,0.228,1.565,0.89,2.288,1.624 c1.177,1.194,2.538,2.576,5.512,2.576c3.2,0,5.2-1.6,6-4.8c-1.2,1.6-2.6,2.2-4.2,1.8c-0.913-0.228-1.565-0.89-2.288-1.624 C10.337,13.382,8.976,12,6.001,12z"/>

  <!-- Main logo body -->
  <path class="logo-body" d="M12.001,4.8c-3.2,0-5.2,1.6-6,4.8c1.2-1.6,2.6-2.2,4.2-1.8c0.913,0.228,1.565,0.89,2.288,1.624 C13.666,10.618,15.027,12,18.001,12c3.2,0,5.2-1.6,6-4.8c-1.2,1.6-2.6,2.2-4.2,1.8c-0.913-0.228-1.565-0.89-2.288-1.624 C16.337,6.182,14.976,4.8,12.001,4.8z M6.001,12c-3.2,0-5.2,1.6-6,4.8c1.2-1.6,2.6-2.2,4.2-1.8c0.913,0.228,1.565,0.89,2.288,1.624 c1.177,1.194,2.538,2.576,5.512,2.576c3.2,0,5.2-1.6,6-4.8c-1.2,1.6-2.6,2.2-4.2,1.8c-0.913-0.228-1.565-0.89-2.288-1.624 C10.337,13.382,8.976,12,6.001,12z"/>
</svg>